<svg xmlns="http://www.w3.org/2000/svg" viewBox="0 0 64 64" aria-hidden="true">
  <circle cx="32" cy="32" r="30" fill="#24292f"/>
  <path fill="#ffffff" d="M32 13.5c-10.5 0-19 8.5-19 19 0 8.4 5.45 15.52 13.02 18.03.95.18 1.3-.41 1.3-.92 0-.45-.02-1.95-.03-3.54-5.3 1.15-6.42-2.25-6.42-2.25-.86-2.2-2.11-2.78-2.11-2.78-1.73-1.18.13-1.16.13-1.16 1.91.14 2.92 1.96 2.92 1.96 1.7 2.9 4.45 2.06 5.53 1.58.17-1.23.66-2.06 1.2-2.54-4.23-.48-8.68-2.12-8.68-9.42 0-2.08.74-3.79 1.96-5.12-.2-.48-.85-2.42.19-5.05 0 0 1.6-.51 5.23 1.96A18.2 18.2 0 0 1 32 22.6c1.62.01 3.24.22 4.76.65 3.63-2.47 5.22-1.96 5.22-1.96 1.04 2.63.39 4.57.19 5.05 1.22 1.33 1.96 3.04 1.96 5.12 0 7.32-4.46 8.93-8.7 9.41.68.59 1.29 1.75 1.29 3.53 0 2.55-.02 4.6-.02 5.22 0 .51.34 1.11 1.31.92A19.02 19.02 0 0 0 51 32.5c0-10.5-8.5-19-19-19z"/>
</svg>
